<svg width="300" height="236" viewBox="0 0 300 236" fill="none" xmlns="http://www.w3.org/2000/svg">
<path d="M39.7463 209.473C55.075 216.243 69.7757 214.921 84.2392 207.493C98.7244 200.054 113.271 192.734 127.783 185.348C128.693 184.885 129.54 184.299 131.054 183.385C126.781 182.358 123.299 181.478 119.798 180.687C109.297 178.316 100.273 172.638 90.8975 167.771C61.4434 152.479 32.0184 137.131 2.61688 121.738C1.61826 121.215 0.331114 119.946 0.374389 119.085C0.420271 118.172 1.73994 117.027 2.76827 116.502C40.3453 97.3242 77.9473 78.1956 115.559 59.0857C139.486 46.9289 163.104 48.2024 186.491 60.722C198.929 67.3806 211.464 73.8588 223.895 80.5298C225.783 81.5426 227.161 81.4747 229.046 80.4896C237.632 76.0032 246.321 71.7159 255.612 67.0356C252.832 65.5697 250.491 64.3307 248.146 63.0995C227.655 52.34 207.267 41.3776 186.644 30.8758C161.863 18.2565 136.955 18.2126 112.049 30.9465C86.1723 44.177 60.1968 57.2153 34.2473 70.3037C23.1415 75.9053 11.9925 81.4211 0.503 87.1557C0.363353 86.029 0.183826 85.229 0.177803 84.4277C0.136246 78.9088 0.37738 73.3736 0.0222074 67.8764C-0.1935 64.538 1.1655 63.0754 3.95571 61.7002C18.3861 54.5879 32.7275 47.2944 47.0824 40.0294C66.348 30.2792 85.54 20.3814 104.868 10.7563C133.033 -3.26976 161.727 -3.38884 190.19 9.29011C205.363 16.049 219.815 24.4249 234.6 32.0553C255.064 42.6159 275.535 53.1616 296.002 63.715C296.492 63.9677 297.051 64.1536 297.443 64.5164C298.339 65.3471 299.153 66.2681 300 67.1524C299.171 67.9149 298.46 68.9092 297.494 69.4048C285.047 75.7891 272.569 82.1116 260.089 88.4315C235.309 100.98 210.564 113.601 185.728 126.037C160.36 138.74 135.299 138.254 110.423 124.266C98.8981 117.786 86.9922 111.982 75.2237 105.941C74.3426 105.489 72.9594 105.136 72.1749 105.507C62.852 109.925 53.5986 114.49 43.5627 119.389C49.9639 122.692 55.6013 125.584 61.2225 128.507C77.7474 137.099 94.2869 145.663 110.781 154.314C127.705 163.191 145.555 165.492 164.379 162.821C176.942 161.04 187.776 155.25 198.785 149.662C204.144 146.942 209.553 144.32 215.435 141.408C215.435 149.219 215.51 156.47 215.332 163.715C215.312 164.547 214.024 165.637 213.075 166.116C181.803 181.906 150.51 197.657 119.195 213.364C108.265 218.846 97.5022 224.751 86.2532 229.491C61.215 240.04 37.9111 235.818 16.6008 219.526C13.2376 216.955 10.5412 213.512 7.21926 210.151C12.4148 205.326 17.2266 200.857 22.3216 196.125C27.3621 201.623 32.5229 206.733 39.7463 209.473ZM196.892 96.5876C198.79 95.5944 200.688 94.6012 202.905 93.4411C192.101 87.7403 181.943 81.9976 171.455 76.9396C157.141 70.0364 142.492 69.9621 128.058 76.7339C118.898 81.0312 109.935 85.7475 100.892 90.2925C99.4892 90.9976 98.1305 91.7912 96.3177 92.7806C104.851 97.2708 112.962 101.214 120.757 105.705C139.654 116.595 158.561 116.769 177.714 106.538C183.921 103.223 190.203 100.048 196.892 96.5876Z" fill="#9900FF"/>
<path d="M234.004 133.082C235.313 131.904 236.531 130.847 237.924 130.131C257.703 119.971 277.506 109.855 297.305 99.7336C297.966 99.3957 298.651 99.1046 299.839 98.5525C299.839 106.281 299.914 113.603 299.735 120.92C299.715 121.73 298.384 122.769 297.433 123.257C284.105 130.098 270.763 136.915 257.352 143.592C255.184 144.671 254.404 145.859 254.415 148.324C254.537 175.675 254.521 203.027 254.541 230.378C254.542 231.467 254.541 232.556 254.541 233.787C247.713 233.787 241.131 233.787 233.995 233.787C233.995 200.293 233.995 166.827 234.004 133.082Z" fill="#9900FF"/>
</svg>
